<?xml version="1.0" encoding="UTF-8" standalone="no"?>
<!-- Created with Inkscape (http://www.inkscape.org/) -->

<svg
   xmlns:dc="http://purl.org/dc/elements/1.1/"
   xmlns:cc="http://creativecommons.org/ns#"
   xmlns:rdf="http://www.w3.org/1999/02/22-rdf-syntax-ns#"
   xmlns:svg="http://www.w3.org/2000/svg"
   xmlns="http://www.w3.org/2000/svg"
   xmlns:sodipodi="http://sodipodi.sourceforge.net/DTD/sodipodi-0.dtd"
   xmlns:inkscape="http://www.inkscape.org/namespaces/inkscape"
   width="100.0001mm"
   height="25.000023mm"
   viewBox="0 0 100.0001 25.000023"
   version="1.1"
   id="svg5848"
   inkscape:version="0.92.4 (5da689c313, 2019-01-14)"
   sodipodi:docname="final_sco.svg">
  <defs
     id="defs5842" />
  <sodipodi:namedview
     id="base"
     pagecolor="#ffffff"
     bordercolor="#666666"
     borderopacity="1.0"
     inkscape:pageopacity="0.0"
     inkscape:pageshadow="2"
     inkscape:zoom="0.7"
     inkscape:cx="178.57087"
     inkscape:cy="-335.7697"
     inkscape:document-units="mm"
     inkscape:current-layer="layer1"
     showgrid="false"
     inkscape:window-width="2400"
     inkscape:window-height="1271"
     inkscape:window-x="-9"
     inkscape:window-y="4"
     inkscape:window-maximized="1"
     fit-margin-top="0"
     fit-margin-left="0"
     fit-margin-right="0"
     fit-margin-bottom="0" />
  <metadata
     id="metadata5845">
    <rdf:RDF>
      <cc:Work
         rdf:about="">
        <dc:format>image/svg+xml</dc:format>
        <dc:type
           rdf:resource="http://purl.org/dc/dcmitype/StillImage" />
        <dc:title></dc:title>
      </cc:Work>
    </rdf:RDF>
  </metadata>
  <g
     inkscape:label="Layer 1"
     inkscape:groupmode="layer"
     id="layer1"
     transform="translate(-6.8037191,-11.249959)">
    <path
       style="fill:#000000;fill-opacity:1;stroke-width:0.99999994"
       d="M 25.714844,42.519531 V 137.00781 H 403.66797 V 42.519531 Z M 292.08984,77.646484 c 3.72917,0 6.66146,1.088542 8.79688,3.265625 2.13542,2.166667 3.20312,5.119792 3.20312,8.859375 0,3.708334 -1.0625,6.65625 -3.1875,8.84375 -2.125,2.177086 -5.0625,3.265626 -8.8125,3.265626 -3.73958,0 -6.67187,-1.08854 -8.79687,-3.265626 -2.125,-2.1875 -3.1875,-5.135416 -3.1875,-8.84375 0,-3.739583 1.0625,-6.692708 3.1875,-8.859375 2.125,-2.177083 5.05729,-3.265625 8.79687,-3.265625 z m -130.78125,0.03125 c 0.97917,0 1.85938,0.05729 2.64063,0.171875 0.79167,0.104167 1.52083,0.244792 2.1875,0.421875 0.69792,0.197917 1.32812,0.421875 1.89062,0.671875 0.57292,0.239584 1.07292,0.463542 1.5,0.671875 v 5.640625 h -0.6875 c -0.29166,-0.25 -0.66145,-0.546875 -1.10937,-0.890625 -0.4375,-0.34375 -0.9375,-0.682291 -1.5,-1.015625 -0.57292,-0.333333 -1.19271,-0.614583 -1.85938,-0.84375 -0.66666,-0.229166 -1.3802,-0.34375 -2.14062,-0.34375 -0.84375,0 -1.64583,0.135417 -2.40625,0.40625 -0.76042,0.260417 -1.46354,0.697917 -2.10938,1.3125 -0.61458,0.59375 -1.11458,1.380209 -1.5,2.359375 -0.375,0.979167 -0.5625,2.166667 -0.5625,3.5625 0,1.458334 0.20313,2.677084 0.60938,3.65625 0.41667,0.979167 0.9375,1.75 1.5625,2.3125 0.63542,0.572917 1.34375,0.984375 2.125,1.234375 0.78125,0.239584 1.55208,0.359375 2.3125,0.359375 0.72917,0 1.44792,-0.109375 2.15625,-0.328125 0.71875,-0.21875 1.38021,-0.515625 1.98437,-0.890625 0.51042,-0.302083 0.98438,-0.625 1.42188,-0.96875 0.4375,-0.34375 0.79687,-0.640625 1.07812,-0.890625 h 0.625 v 5.5625 c -0.58333,0.260421 -1.14062,0.505211 -1.67187,0.734371 -0.53125,0.22917 -1.08854,0.42709 -1.67188,0.59375 -0.76041,0.21875 -1.47395,0.38542 -2.14062,0.5 -0.66667,0.11459 -1.58333,0.17188 -2.75,0.17188 -1.72917,0 -3.32813,-0.25521 -4.79688,-0.76563 -1.45833,-0.51041 -2.71354,-1.270829 -3.76562,-2.281246 -1.05208,-1.010416 -1.86979,-2.270833 -2.45313,-3.78125 -0.57291,-1.510416 -0.85937,-3.255208 -0.85937,-5.234375 0,-1.84375 0.27604,-3.515625 0.82812,-5.015625 0.55209,-1.5 1.35417,-2.786458 2.40625,-3.859375 1.01042,-1.03125 2.26042,-1.828125 3.75,-2.390625 1.5,-0.5625 3.13542,-0.84375 4.90625,-0.84375 z m 71.875,0 c 0.97917,0 1.85938,0.05729 2.64063,0.171875 0.79167,0.104167 1.52083,0.244792 2.1875,0.421875 0.69792,0.197917 1.32812,0.421875 1.89062,0.671875 0.57292,0.239584 1.07292,0.463542 1.5,0.671875 v 5.640625 h -0.6875 c -0.29166,-0.25 -0.66145,-0.546875 -1.10937,-0.890625 -0.4375,-0.34375 -0.9375,-0.682291 -1.5,-1.015625 -0.57292,-0.333333 -1.19271,-0.614583 -1.85938,-0.84375 -0.66666,-0.229166 -1.3802,-0.34375 -2.14062,-0.34375 -0.84375,0 -1.64583,0.135417 -2.40625,0.40625 -0.76042,0.260417 -1.46354,0.697917 -2.10938,1.3125 -0.61458,0.59375 -1.11458,1.380209 -1.5,2.359375 -0.375,0.979167 -0.5625,2.166667 -0.5625,3.5625 0,1.458334 0.20313,2.677084 0.60938,3.65625 0.41667,0.979167 0.9375,1.75 1.5625,2.3125 0.63542,0.572917 1.34375,0.984375 2.125,1.234375 0.78125,0.239584 1.55208,0.359375 2.3125,0.359375 0.72917,0 1.44792,-0.109375 2.15625,-0.328125 0.71875,-0.21875 1.38021,-0.515625 1.98437,-0.890625 0.51042,-0.302083 0.98438,-0.625 1.42188,-0.96875 0.4375,-0.34375 0.79687,-0.640625 1.07812,-0.890625 h 0.625 v 5.5625 c -0.58333,0.260421 -1.14062,0.505211 -1.67187,0.734371 -0.53125,0.22917 -1.08854,0.42709 -1.67188,0.59375 -0.76041,0.21875 -1.47395,0.38542 -2.14062,0.5 -0.66667,0.11459 -1.58333,0.17188 -2.75,0.17188 -1.72917,0 -3.32813,-0.25521 -4.79688,-0.76563 -1.45833,-0.51041 -2.71354,-1.270829 -3.76562,-2.281246 -1.05208,-1.010416 -1.86979,-2.270833 -2.45313,-3.78125 -0.57291,-1.510416 -0.85937,-3.255208 -0.85937,-5.234375 0,-1.84375 0.27604,-3.515625 0.82812,-5.015625 0.55209,-1.5 1.35417,-2.786458 2.40625,-3.859375 1.01042,-1.03125 2.26042,-1.828125 3.75,-2.390625 1.5,-0.5625 3.13542,-0.84375 4.90625,-0.84375 z m -169.874996,0.03125 c 1.53125,0 3.041666,0.151042 4.53125,0.453125 1.5,0.291667 2.796875,0.661459 3.890625,1.109375 v 5.359375 h -0.640625 c -0.9375,-0.75 -2.088542,-1.375 -3.453125,-1.875 -1.354167,-0.510416 -2.739584,-0.765625 -4.15625,-0.765625 -0.5,0 -1,0.03646 -1.5,0.109375 -0.489584,0.0625 -0.963542,0.1875 -1.421875,0.375 -0.40625,0.15625 -0.755209,0.395834 -1.046875,0.71875 -0.291667,0.3125 -0.4375,0.671875 -0.4375,1.078125 0,0.614584 0.234375,1.088542 0.703125,1.421875 0.46875,0.322917 1.354166,0.619792 2.65625,0.890625 0.854166,0.177084 1.671875,0.348959 2.453125,0.515625 0.791666,0.166667 1.640625,0.395834 2.546875,0.6875 1.78125,0.583334 3.09375,1.380209 3.9375,2.390625 0.854166,1 1.28125,2.302084 1.28125,3.90625 0,2.291667 -0.973959,4.15625 -2.921875,5.59375 -1.9375,1.427086 -4.572917,2.140626 -7.90625,2.140626 -1.927084,0 -3.609375,-0.16667 -5.046875,-0.5 -1.427084,-0.34375 -2.765625,-0.77604 -4.015625,-1.29688 v -5.578121 h 0.65625 c 1.239583,0.989584 2.625,1.75 4.15625,2.28125 1.541666,0.53125 3.020833,0.796875 4.4375,0.796875 0.364583,0 0.84375,-0.03125 1.4375,-0.09375 0.59375,-0.0625 1.078125,-0.166666 1.453125,-0.3125 0.458333,-0.1875 0.833333,-0.421875 1.125,-0.703125 0.302083,-0.28125 0.453125,-0.697916 0.453125,-1.25 0,-0.510416 -0.21875,-0.947916 -0.65625,-1.3125 -0.427084,-0.375 -1.057292,-0.661458 -1.890625,-0.859375 -0.875,-0.208333 -1.802084,-0.401041 -2.78125,-0.578125 -0.96875,-0.1875 -1.880209,-0.421875 -2.734375,-0.703125 -1.958334,-0.635416 -3.369792,-1.494791 -4.234375,-2.578125 -0.854167,-1.09375 -1.28125,-2.447916 -1.28125,-4.0625 0,-2.166666 0.96875,-3.932291 2.90625,-5.296875 1.947916,-1.375 4.447916,-2.0625 7.5,-2.0625 z m 13.46875,0.421875 h 16.828125 v 4.5 H 82.746094 v 4.015625 h 10.078125 v 4.5 H 82.746094 v 5.75 h 10.859375 v 4.499996 H 76.777344 Z m 21.875,0 h 5.999996 v 18.765625 h 10.78125 v 4.499996 H 98.652344 Z m 20.374996,0 h 16.67188 v 4.5 h -10.70313 v 4.328125 h 9.92188 v 4.5 h -9.92188 v 9.937496 h -5.96875 z m 54.9375,0 h 6 v 8.515625 h 8.85938 v -8.515625 h 6 v 23.265621 h -6 V 91.146484 h -8.85938 v 10.249996 h -6 z m 26.8125,0 h 16.82813 v 4.5 h -10.85938 v 4.015625 h 10.07813 v 4.5 h -10.07813 v 5.75 h 10.85938 v 4.499996 h -16.82813 z m 45.0625,0 h 6 v 10.53125 l 8.3125,-10.53125 h 6.95313 l -9.09375,10.765625 9.54687,12.499996 h -7.35937 l -6.95313,-9.312496 -1.40625,1.703125 v 7.609371 h -6 z m 62.8125,0 h 7.17188 l 8.48437,13.328125 V 78.130859 h 5.5 v 23.265621 h -5.78125 l -9.875,-15.968746 v 15.968746 h -5.5 z m 27.125,0 h 6 v 18.765625 h 10.78125 v 4.499996 h -16.78125 z m 17.54688,0 h 6.8125 l 5.03125,9 4.85937,-9 h 6.59375 l -8.57812,14.265625 v 8.999996 h -6 v -8.718746 z m -61.21875,3.90625 c -0.76042,0 -1.47917,0.135417 -2.15625,0.40625 -0.66667,0.270834 -1.28125,0.71875 -1.84375,1.34375 -0.52083,0.583334 -0.94792,1.390625 -1.28125,2.421875 -0.32292,1.020834 -0.48438,2.208334 -0.48438,3.5625 0,1.385417 0.15625,2.567709 0.46875,3.546875 0.32292,0.96875 0.7448,1.760417 1.26563,2.375 0.52083,0.614584 1.13021,1.067709 1.82812,1.359375 0.69792,0.291667 1.4323,0.4375 2.20313,0.4375 0.77083,0 1.50521,-0.145833 2.20312,-0.4375 0.69792,-0.302083 1.3073,-0.765625 1.82813,-1.390625 0.58333,-0.708333 1.01562,-1.541666 1.29687,-2.5 0.28125,-0.96875 0.42188,-2.104166 0.42188,-3.40625 0,-1.395833 -0.16146,-2.583333 -0.48438,-3.5625 -0.32291,-0.979166 -0.74479,-1.770833 -1.26562,-2.375 -0.53125,-0.625 -1.14583,-1.078125 -1.84375,-1.359375 -0.6875,-0.28125 -1.40625,-0.421875 -2.15625,-0.421875 z"
       transform="scale(0.26458333)"
       id="rect5850"
       inkscape:connector-curvature="0" />
  </g>
</svg>
