<svg id="Layer_1" data-name="Layer 1" xmlns="http://www.w3.org/2000/svg" viewBox="0 0 32 32"><defs><style>.cls-1{fill:#ccc;}.cls-2{fill:#333;}.cls-3{fill:#fff;}</style></defs><path class="cls-1" d="M16,15.79c4.22,0,7.83-1.57,9.29-3.79H30V9.86H2V12H6.71C8.17,14.22,11.78,15.79,16,15.79Z"/><path class="cls-2" d="M30,12H25.29c-1.46,2.22-5.07,3.79-9.29,3.79S8.17,14.22,6.71,12H0V32H32V12Z"/><path class="cls-3" d="M18.46,19.63v8.74H16.05V22.64a6.68,6.68,0,0,1-1.14.72,8.2,8.2,0,0,1-1.37.53v-2A5.73,5.73,0,0,0,15.43,21a3.94,3.94,0,0,0,1.06-1.36Z"/></svg>