<svg id="Layer_1" data-name="Layer 1" xmlns="http://www.w3.org/2000/svg" viewBox="0 0 32 32"><defs><style>.cls-1{fill:#ccc;}.cls-2{fill:#333;}.cls-3{fill:#fff;}</style></defs><path class="cls-1" d="M16,15.79c4.22,0,7.83-1.57,9.29-3.79H30V9.86H2V12H6.71C8.17,14.22,11.78,15.79,16,15.79Z"/><path class="cls-2" d="M30,12H25.29c-1.46,2.22-5.07,3.79-9.29,3.79S8.17,14.22,6.71,12H0V32H32V12Z"/><path class="cls-3" d="M19.58,28.37H12.42a4.45,4.45,0,0,1,.75-2,9.73,9.73,0,0,1,2.34-2.2A7,7,0,0,0,16.85,23a1.34,1.34,0,0,0,.29-.76.89.89,0,0,0-.29-.68,1,1,0,0,0-.73-.27,1,1,0,0,0-.74.28,1.7,1.7,0,0,0-.39,1l-2.39-.2a3.76,3.76,0,0,1,.51-1.57,2.35,2.35,0,0,1,1.06-.87,4.78,4.78,0,0,1,1.89-.3,5.36,5.36,0,0,1,2,.29,2.34,2.34,0,0,1,1.1.88,2.31,2.31,0,0,1,.4,1.33,2.67,2.67,0,0,1-.46,1.5,6.26,6.26,0,0,1-1.67,1.57l-1,.7c-.16.13-.35.31-.57.52h3.73Z"/></svg>