<svg id="Layer_1" data-name="Layer 1" xmlns="http://www.w3.org/2000/svg" viewBox="0 0 32 32"><defs><style>.cls-1{fill:#ccc;}.cls-2{fill:#333;}.cls-3{fill:#fff;}</style></defs><path class="cls-1" d="M16,15.79c4.22,0,7.83-1.57,9.29-3.79H30V9.86H2V12H6.71C8.17,14.22,11.78,15.79,16,15.79Z"/><path class="cls-2" d="M30,12H25.29c-1.46,2.22-5.07,3.79-9.29,3.79S8.17,14.22,6.71,12H0V32H32V12Z"/><path class="cls-3" d="M14.84,22.19l-2.26-.4a2.9,2.9,0,0,1,1.08-1.66,3.89,3.89,0,0,1,2.27-.57,3.77,3.77,0,0,1,2.43.63,2,2,0,0,1,.75,1.57,1.72,1.72,0,0,1-.31,1,2.6,2.6,0,0,1-.92.79,2.64,2.64,0,0,1,.77.29,1.82,1.82,0,0,1,.66.69,2.09,2.09,0,0,1,.24,1A2.89,2.89,0,0,1,19.16,27,2.66,2.66,0,0,1,18,28.07a4.27,4.27,0,0,1-1.94.37,5.07,5.07,0,0,1-1.84-.27,2.89,2.89,0,0,1-1.12-.81A3.78,3.78,0,0,1,12.45,26l2.39-.32a1.91,1.91,0,0,0,.43,1,1.13,1.13,0,0,0,1.56-.07,1.37,1.37,0,0,0,.32-.94,1.34,1.34,0,0,0-.31-.93,1.1,1.1,0,0,0-.84-.32,2.8,2.8,0,0,0-.77.14l.12-1.71.31,0a1.09,1.09,0,0,0,.79-.3,1,1,0,0,0,.31-.71.81.81,0,0,0-.24-.62.84.84,0,0,0-.64-.24,1,1,0,0,0-.69.26A1.54,1.54,0,0,0,14.84,22.19Z"/></svg>