<svg id="Layer_1" data-name="Layer 1" xmlns="http://www.w3.org/2000/svg" viewBox="0 0 32 32"><defs><style>.cls-1{fill:#ccc;}.cls-2{fill:#333;}.cls-3{fill:#fff;}</style></defs><path class="cls-1" d="M16,15.79c4.22,0,7.83-1.57,9.29-3.79H30V9.86H2V12H6.71C8.17,14.22,11.78,15.79,16,15.79Z"/><path class="cls-2" d="M30,12H25.29c-1.46,2.22-5.07,3.79-9.29,3.79S8.17,14.22,6.71,12H0V32H32V12Z"/><path class="cls-3" d="M13.5,19.63h5.66v1.91H15.32l-.2,1.29a4.2,4.2,0,0,1,.79-.29,3.37,3.37,0,0,1,.77-.09,2.88,2.88,0,0,1,2.09.78,2.63,2.63,0,0,1,.8,2,3.37,3.37,0,0,1-.41,1.6A2.87,2.87,0,0,1,18,28a4.15,4.15,0,0,1-1.95.41,6.05,6.05,0,0,1-1.45-.16,3,3,0,0,1-1-.48,2.79,2.79,0,0,1-.69-.73,3.71,3.71,0,0,1-.44-1l2.41-.27a1.48,1.48,0,0,0,.41.88,1.11,1.11,0,0,0,.77.31,1,1,0,0,0,.82-.38,1.68,1.68,0,0,0,.33-1.13,1.64,1.64,0,0,0-.33-1.13,1.15,1.15,0,0,0-.87-.35,1.34,1.34,0,0,0-.67.17,2,2,0,0,0-.53.44l-2-.29Z"/></svg>