<svg id="Ebene_1" data-name="Ebene 1" xmlns="http://www.w3.org/2000/svg" viewBox="0 0 128 128"><defs><style>.cls-1,.cls-5{fill:none;stroke:#00549f;}.cls-1,.cls-3,.cls-5{stroke-miterlimit:10;}.cls-1{stroke-width:8px;}.cls-2{fill:#00549f;}.cls-3{font-size:67px;stroke:#fff;stroke-width:2px;font-family:HelveticaNeueLTCom-Bd, Helvetica Neue LT Com;}.cls-3,.cls-4{fill:#fff;}.cls-5{stroke-width:10px;}</style></defs><title>190418 Annas Plugin 128_05</title><path class="cls-1" d="M109.48,73.36c8,0,14.4-5.4,14.4-12.06s-6.44-12.07-14.4-12.07"/><polygon class="cls-2" points="89.17 73.36 110.78 87.15 110.78 59.58 89.17 73.36"/><rect class="cls-2" y="37.1" width="87.4" height="9.91"/><rect class="cls-2" y="54.06" width="87.4" height="12.04"/><rect class="cls-2" y="69.61" width="87.4" height="12.04"/><rect class="cls-2" y="85.16" width="87.4" height="8.07"/><rect class="cls-2" y="34.03" width="87.4" height="63.43"/><text class="cls-3" transform="translate(25.75 89.89)">?</text><rect class="cls-4" width="128" height="128"/><rect class="cls-2" x="39.19" y="31.74" width="76.37" height="57.07"/><path class="cls-4" d="M112.56,34.74V85.81H42.19V34.74h70.37m6-6H36.19V91.81h82.37V28.74Z"/><rect class="cls-2" x="19.11" y="51.82" width="76.37" height="57.07"/><path class="cls-4" d="M92.48,54.82v51.07H22.11V54.82H92.48m6-6H16.11v63.07H98.48V48.82Z"/><rect class="cls-2" x="-3" y="73.93" width="76.37" height="57.07"/><path class="cls-4" d="M70.37,76.93V128H0V76.93H70.37m6-6H-6V134H76.37V70.93Z"/><polygon class="cls-2" points="23.33 20.55 71.84 20.55 47.59 57.11 23.33 20.55"/><path class="cls-4" d="M66.25,23.56,47.59,51.68,28.92,23.56H66.25m11.19-6H17.74l6.18,9.31L42.59,55l5,7.53,5-7.53L71.25,26.87l6.19-9.31Z"/><path class="cls-5" d="M47.59,27.15c0-11.76,8-21.3,17.84-21.3s17.85,9.54,17.85,21.3"/></svg>