<?xml version="1.0" encoding="UTF-8"?>
<svg id="Ebene_2" data-name="Ebene 2" xmlns="http://www.w3.org/2000/svg" viewBox="0 0 24.09 23.92">
  <defs>
    <style>
      .cls-1 {
        fill: #231f20;
      }
    </style>
  </defs>
  <g id="Icons">
    <g id="Card_Box_new" data-name="Card Box_new">
      <g>
        <path class="cls-1" d="m4.01,0v2.43h16.07V0H4.01Zm-.5,4.43v1.62h17.07v-1.62H3.51Z"/>
        <path class="cls-1" d="m20.08,4.43v1.12H4.01v-1.12h-1v2.12h18.07v-2.12h-1Z"/>
      </g>
      <rect class="cls-1" x="2" y="4.43" width="20.09" height="2.75"/>
      <path class="cls-1" d="m20.87,9.18H3.22c-1.78,0-3.22,1.44-3.22,3.21v8.32c0,1.77,1.44,3.21,3.22,3.21h17.65c1.77,0,3.22-1.44,3.22-3.21v-8.32c0-1.77-1.45-3.21-3.22-3.21Zm1.22,11.53c0,.67-.55,1.21-1.22,1.21H3.22c-.67,0-1.22-.54-1.22-1.21v-8.32c0-.66.55-1.21,1.22-1.21h17.65c.67,0,1.22.55,1.22,1.21v8.32Z"/>
      <path class="cls-1" d="m16.22,17H7.87c-.55,0-1-.45-1-1s.45-1,1-1h8.35c.55,0,1,.45,1,1s-.45,1-1,1Z"/>
    </g>
  </g>
</svg>